{
 "cells": [
  {
   "cell_type": "code",
   "execution_count": 2,
   "metadata": {},
   "outputs": [
    {
     "name": "stdout",
     "output_type": "stream",
     "text": [
      "ffmpeg version 6.0 Copyright (c) 2000-2023 the FFmpeg developers\n",
      "  built with Apple clang version 15.0.0 (clang-1500.0.40.1)\n",
      "  configuration: --prefix=/opt/homebrew/Cellar/ffmpeg/6.0_2 --enable-shared --enable-pthreads --enable-version3 --cc=clang --host-cflags= --host-ldflags='-Wl,-ld_classic' --enable-ffplay --enable-gnutls --enable-gpl --enable-libaom --enable-libaribb24 --enable-libbluray --enable-libdav1d --enable-libjxl --enable-libmp3lame --enable-libopus --enable-librav1e --enable-librist --enable-librubberband --enable-libsnappy --enable-libsrt --enable-libsvtav1 --enable-libtesseract --enable-libtheora --enable-libvidstab --enable-libvmaf --enable-libvorbis --enable-libvpx --enable-libwebp --enable-libx264 --enable-libx265 --enable-libxml2 --enable-libxvid --enable-lzma --enable-libfontconfig --enable-libfreetype --enable-frei0r --enable-libass --enable-libopencore-amrnb --enable-libopencore-amrwb --enable-libopenjpeg --enable-libspeex --enable-libsoxr --enable-libzmq --enable-libzimg --disable-libjack --disable-indev=jack --enable-videotoolbox --enable-audiotoolbox --enable-neon\n",
      "  libavutil      58.  2.100 / 58.  2.100\n",
      "  libavcodec     60.  3.100 / 60.  3.100\n",
      "  libavformat    60.  3.100 / 60.  3.100\n",
      "  libavdevice    60.  1.100 / 60.  1.100\n",
      "  libavfilter     9.  3.100 /  9.  3.100\n",
      "  libswscale      7.  1.100 /  7.  1.100\n",
      "  libswresample   4. 10.100 /  4. 10.100\n",
      "  libpostproc    57.  1.100 / 57.  1.100\n",
      "Input #0, mov,mp4,m4a,3gp,3g2,mj2, from './input.mp4':\n",
      "  Metadata:\n",
      "    major_brand     : isom\n",
      "    minor_version   : 512\n",
      "    compatible_brands: isomiso2avc1mp41\n",
      "    creation_time   : 1970-01-01T00:00:00.000000Z\n",
      "    encoder         : Lavf53.24.2\n",
      "  Duration: 00:01:04.90, start: 0.000000, bitrate: 647 kb/s\n",
      "  Stream #0:0[0x1](und): Video: h264 (Main) (avc1 / 0x31637661), yuv420p(progressive), 320x240 [SAR 1:1 DAR 4:3], 260 kb/s, 15 fps, 15 tbr, 15360 tbn (default)\n",
      "    Metadata:\n",
      "      creation_time   : 1970-01-01T00:00:00.000000Z\n",
      "      handler_name    : VideoHandler\n",
      "      vendor_id       : [0][0][0][0]\n",
      "  Stream #0:1[0x2](und): Audio: aac (LC) (mp4a / 0x6134706D), 48000 Hz, 5.1, fltp, 383 kb/s (default)\n",
      "    Metadata:\n",
      "      creation_time   : 1970-01-01T00:00:00.000000Z\n",
      "      handler_name    : SoundHandler\n",
      "      vendor_id       : [0][0][0][0]\n",
      "Stream mapping:\n",
      "  Stream #0:0 -> #0:0 (h264 (native) -> png (native))\n",
      "Press [q] to stop, [?] for help\n",
      "\u001b[1;34m[swscaler @ 0x128b60000] \u001b[0m\u001b[1;34m[swscaler @ 0x118360000] \u001b[0m\u001b[0;33mNo accelerated colorspace conversion found from yuv420p to rgb24.\n",
      "\u001b[0m\u001b[1;34m[swscaler @ 0x128b60000] \u001b[0m\u001b[1;34m[swscaler @ 0x1380c0000] \u001b[0m\u001b[0;33mNo accelerated colorspace conversion found from yuv420p to rgb24.\n",
      "\u001b[0m\u001b[1;34m[swscaler @ 0x128b60000] \u001b[0m\u001b[1;34m[swscaler @ 0x1380d0000] \u001b[0m\u001b[0;33mNo accelerated colorspace conversion found from yuv420p to rgb24.\n",
      "\u001b[0m\u001b[1;34m[swscaler @ 0x128b60000] \u001b[0m\u001b[1;34m[swscaler @ 0x1380e0000] \u001b[0m\u001b[0;33mNo accelerated colorspace conversion found from yuv420p to rgb24.\n",
      "\u001b[0m\u001b[1;34m[swscaler @ 0x128b60000] \u001b[0m\u001b[1;34m[swscaler @ 0x1380f0000] \u001b[0m\u001b[0;33mNo accelerated colorspace conversion found from yuv420p to rgb24.\n",
      "\u001b[0m\u001b[1;34m[swscaler @ 0x128b60000] \u001b[0m\u001b[1;34m[swscaler @ 0x138100000] \u001b[0m\u001b[0;33mNo accelerated colorspace conversion found from yuv420p to rgb24.\n",
      "\u001b[0m\u001b[1;34m[swscaler @ 0x128b60000] \u001b[0m\u001b[1;34m[swscaler @ 0x138110000] \u001b[0m\u001b[0;33mNo accelerated colorspace conversion found from yuv420p to rgb24.\n",
      "\u001b[0m\u001b[1;34m[swscaler @ 0x128b60000] \u001b[0m\u001b[1;34m[swscaler @ 0x138120000] \u001b[0m\u001b[0;33mNo accelerated colorspace conversion found from yuv420p to rgb24.\n",
      "\u001b[0m\u001b[1;34m[swscaler @ 0x128b60000] \u001b[0m\u001b[1;34m[swscaler @ 0x138130000] \u001b[0m\u001b[0;33mNo accelerated colorspace conversion found from yuv420p to rgb24.\n",
      "\u001b[0m\u001b[1;34m[swscaler @ 0x128b60000] \u001b[0m\u001b[1;34m[swscaler @ 0x138140000] \u001b[0m\u001b[0;33mNo accelerated colorspace conversion found from yuv420p to rgb24.\n",
      "\u001b[0m\u001b[1;34m[swscaler @ 0x128b60000] \u001b[0m\u001b[1;34m[swscaler @ 0x138150000] \u001b[0m\u001b[0;33mNo accelerated colorspace conversion found from yuv420p to rgb24.\n",
      "\u001b[0mOutput #0, image2, to './output/image-%04d.png':\n",
      "  Metadata:\n",
      "    major_brand     : isom\n",
      "    minor_version   : 512\n",
      "    compatible_brands: isomiso2avc1mp41\n",
      "    encoder         : Lavf60.3.100\n",
      "  Stream #0:0(und): Video: png, rgb24(pc, gbr/unknown/unknown, progressive), 320x240 [SAR 1:1 DAR 4:3], q=2-31, 200 kb/s, 15 fps, 15 tbn (default)\n",
      "    Metadata:\n",
      "      creation_time   : 1970-01-01T00:00:00.000000Z\n",
      "      handler_name    : VideoHandler\n",
      "      vendor_id       : [0][0][0][0]\n",
      "      encoder         : Lavc60.3.100 png\n",
      "frame=  973 fps=0.0 q=-0.0 Lsize=N/A time=00:01:04.80 bitrate=N/A speed=96.2x    ts/s speed=N/A    \n",
      "video:103371kB audio:0kB subtitle:0kB other streams:0kB global headers:0kB muxing overhead: unknown\n"
     ]
    }
   ],
   "source": [
    "# @title ⬅️ **Split Video In Frames**\n",
    "!mkdir output\n",
    "!ffmpeg -i ./input.mp4 -f image2 ./input/image-%04d.png"
   ]
  },
  {
   "cell_type": "code",
   "execution_count": 19,
   "metadata": {},
   "outputs": [
    {
     "name": "stdout",
     "output_type": "stream",
     "text": [
      "/Users/mehow/src-uni/Pytorch-HeadTrip/venv/lib/python3.11/site-packages/torchvision/models/_utils.py:208: UserWarning: The parameter 'pretrained' is deprecated since 0.13 and may be removed in the future, please use 'weights' instead.\n",
      "  warnings.warn(\n",
      "/Users/mehow/src-uni/Pytorch-HeadTrip/venv/lib/python3.11/site-packages/torchvision/models/_utils.py:223: UserWarning: Arguments other than a weight enum or `None` for 'weights' are deprecated since 0.13 and may be removed in the future. The current behavior is equivalent to passing `weights=VGG19_Weights.IMAGENET1K_V1`. You can also use `weights=VGG19_Weights.DEFAULT` to get the most up-to-date weights.\n",
      "  warnings.warn(msg)\n",
      "Using cache found in depth_model/intel-isl_MiDaS_master\n",
      "Loading weights:  None\n",
      "Using cache found in depth_model/rwightman_gen-efficientnet-pytorch_master\n",
      "Using cache found in depth_model/intel-isl_MiDaS_master\n",
      "10 1.2 20 0.008\n",
      "Dreaming:   0%|                                          | 0/20 [00:00<?, ?it/s]Input Image:  float32\n",
      "Octave Base:  float32\n",
      "FP32\n",
      "FP32\n",
      "FP32\n",
      "FP32\n",
      "FP32\n",
      "FP32\n",
      "FP32\n",
      "FP32\n",
      "FP32\n",
      "FP32\n",
      "Dreaming:   5%|█▋                                | 1/20 [00:01<00:25,  1.34s/it]Input Image:  float32\n",
      "Octave Base:  float32\n",
      "FP32\n",
      "FP32\n",
      "FP32\n",
      "FP32\n",
      "FP32\n",
      "FP32\n",
      "FP32\n",
      "FP32\n",
      "FP32\n",
      "FP32\n",
      "Dreaming:  10%|███▍                              | 2/20 [00:02<00:23,  1.33s/it]Input Image:  float32\n",
      "Octave Base:  float32\n",
      "FP32\n",
      "FP32\n",
      "FP32\n",
      "FP32\n",
      "FP32\n",
      "FP32\n",
      "FP32\n",
      "FP32\n",
      "FP32\n",
      "FP32\n",
      "Dreaming:  15%|█████                             | 3/20 [00:04<00:24,  1.45s/it]Input Image:  float32\n",
      "Octave Base:  float32\n",
      "FP32\n",
      "FP32\n",
      "FP32\n",
      "FP32\n",
      "FP32\n",
      "FP32\n",
      "FP32\n",
      "FP32\n",
      "FP32\n",
      "FP32\n",
      "Dreaming:  20%|██████▊                           | 4/20 [00:05<00:22,  1.40s/it]Input Image:  float32\n",
      "Octave Base:  float32\n",
      "FP32\n",
      "FP32\n",
      "FP32\n",
      "FP32\n",
      "FP32\n",
      "FP32\n",
      "FP32\n",
      "FP32\n",
      "FP32\n",
      "FP32\n",
      "Dreaming:  25%|████████▌                         | 5/20 [00:07<00:21,  1.43s/it]Input Image:  float32\n",
      "Octave Base:  float32\n",
      "FP32\n",
      "FP32\n",
      "FP32\n",
      "FP32\n",
      "FP32\n",
      "FP32\n",
      "FP32\n",
      "FP32\n",
      "FP32\n",
      "FP32\n",
      "Dreaming:  30%|██████████▏                       | 6/20 [00:08<00:20,  1.48s/it]Input Image:  float32\n",
      "Octave Base:  float32\n",
      "FP32\n",
      "FP32\n",
      "FP32\n",
      "FP32\n",
      "FP32\n",
      "FP32\n",
      "FP32\n",
      "FP32\n",
      "FP32\n",
      "FP32\n",
      "Dreaming:  35%|███████████▉                      | 7/20 [00:10<00:21,  1.63s/it]Input Image:  float32\n",
      "Octave Base:  float32\n",
      "FP32\n",
      "FP32\n",
      "FP32\n",
      "FP32\n",
      "FP32\n",
      "FP32\n",
      "FP32\n",
      "FP32\n",
      "FP32\n",
      "FP32\n",
      "Dreaming:  40%|█████████████▌                    | 8/20 [00:12<00:21,  1.82s/it]Input Image:  float32\n",
      "Octave Base:  float32\n",
      "FP32\n",
      "FP32\n",
      "FP32\n",
      "FP32\n",
      "FP32\n",
      "FP32\n",
      "FP32\n",
      "FP32\n",
      "FP32\n",
      "FP32\n",
      "Dreaming:  45%|███████████████▎                  | 9/20 [00:15<00:22,  2.01s/it]Input Image:  float32\n",
      "Octave Base:  float32\n",
      "FP32\n",
      "FP32\n",
      "FP32\n",
      "FP32\n",
      "FP32\n",
      "FP32\n",
      "FP32\n",
      "FP32\n",
      "FP32\n",
      "FP32\n",
      "Dreaming:  50%|████████████████▌                | 10/20 [00:18<00:23,  2.34s/it]Input Image:  float32\n",
      "Octave Base:  float32\n",
      "FP32\n",
      "FP32\n",
      "FP32\n",
      "FP32\n",
      "FP32\n",
      "FP32\n",
      "FP32\n",
      "FP32\n",
      "FP32\n",
      "FP32\n",
      "Dreaming:  55%|██████████████████▏              | 11/20 [00:22<00:26,  2.93s/it]Input Image:  float32\n",
      "Octave Base:  float32\n",
      "FP32\n",
      "FP32\n",
      "FP32\n",
      "FP32\n",
      "FP32\n",
      "FP32\n",
      "FP32\n",
      "FP32\n",
      "FP32\n",
      "FP32\n",
      "Dreaming:  60%|███████████████████▊             | 12/20 [00:28<00:29,  3.74s/it]Input Image:  float32\n",
      "Octave Base:  float32\n",
      "FP32\n",
      "FP32\n",
      "FP32\n",
      "FP32\n",
      "FP32\n",
      "FP32\n",
      "FP32\n",
      "FP32\n",
      "FP32\n",
      "FP32\n",
      "Dreaming:  65%|█████████████████████▍           | 13/20 [00:35<00:34,  4.87s/it]Input Image:  float32\n",
      "Octave Base:  float32\n",
      "FP32\n",
      "FP32\n",
      "FP32\n",
      "FP32\n",
      "FP32\n",
      "FP32\n",
      "FP32\n",
      "FP32\n",
      "FP32\n",
      "FP32\n",
      "Dreaming:  70%|███████████████████████          | 14/20 [00:47<00:41,  6.86s/it]Input Image:  float32\n",
      "Octave Base:  float32\n",
      "FP32\n",
      "FP32\n",
      "FP32\n",
      "FP32\n",
      "FP32\n",
      "FP32\n",
      "FP32\n",
      "FP32\n",
      "FP32\n",
      "FP32\n",
      "Dreaming:  75%|████████████████████████▊        | 15/20 [01:03<00:48,  9.71s/it]Input Image:  float32\n",
      "Octave Base:  float32\n",
      "FP32\n",
      "FP32\n",
      "FP32\n",
      "FP32\n",
      "FP32\n",
      "FP32\n",
      "FP32\n",
      "FP32\n",
      "FP32\n",
      "FP32\n",
      "Dreaming:  80%|██████████████████████████▍      | 16/20 [01:25<00:53, 13.37s/it]Input Image:  float32\n",
      "Octave Base:  float32\n",
      "FP32\n",
      "FP32\n",
      "FP32\n",
      "FP32\n",
      "FP32\n",
      "FP32\n",
      "FP32\n",
      "FP32\n",
      "FP32\n",
      "FP32\n",
      "Dreaming:  85%|████████████████████████████     | 17/20 [02:21<01:18, 26.26s/it]Input Image:  float32\n",
      "Octave Base:  float32\n",
      "FP32\n",
      "FP32\n",
      "FP32\n",
      "FP32\n",
      "FP32\n",
      "FP32\n",
      "FP32\n",
      "FP32\n",
      "FP32\n",
      "FP32\n",
      "Dreaming:  90%|█████████████████████████████▋   | 18/20 [03:17<01:10, 35.30s/it]Input Image:  float32\n",
      "Octave Base:  float32\n",
      "FP32\n",
      "FP32\n",
      "FP32\n",
      "FP32\n",
      "FP32\n",
      "FP32\n",
      "FP32\n",
      "FP32\n",
      "FP32\n",
      "FP32\n",
      "Dreaming:  95%|███████████████████████████████▎ | 19/20 [05:03<00:56, 56.41s/it]Input Image:  float32\n",
      "Octave Base:  float32\n",
      "FP32\n",
      "FP32\n",
      "FP32\n",
      "FP32\n",
      "FP32\n",
      "FP32\n",
      "FP32\n",
      "FP32\n",
      "FP32\n",
      "FP32\n",
      "Dreaming: 100%|█████████████████████████████████| 20/20 [07:25<00:00, 22.27s/it]\n"
     ]
    }
   ],
   "source": [
    "# @title ⬅️ **Dream Every Frame**\n",
    "!python dream.py --config ./configs/basic_conf.yaml"
   ]
  },
  {
   "cell_type": "code",
   "execution_count": 22,
   "metadata": {},
   "outputs": [
    {
     "name": "stdout",
     "output_type": "stream",
     "text": [
      "ffmpeg version 6.0 Copyright (c) 2000-2023 the FFmpeg developers\n",
      "  built with Apple clang version 15.0.0 (clang-1500.0.40.1)\n",
      "  configuration: --prefix=/opt/homebrew/Cellar/ffmpeg/6.0_2 --enable-shared --enable-pthreads --enable-version3 --cc=clang --host-cflags= --host-ldflags='-Wl,-ld_classic' --enable-ffplay --enable-gnutls --enable-gpl --enable-libaom --enable-libaribb24 --enable-libbluray --enable-libdav1d --enable-libjxl --enable-libmp3lame --enable-libopus --enable-librav1e --enable-librist --enable-librubberband --enable-libsnappy --enable-libsrt --enable-libsvtav1 --enable-libtesseract --enable-libtheora --enable-libvidstab --enable-libvmaf --enable-libvorbis --enable-libvpx --enable-libwebp --enable-libx264 --enable-libx265 --enable-libxml2 --enable-libxvid --enable-lzma --enable-libfontconfig --enable-libfreetype --enable-frei0r --enable-libass --enable-libopencore-amrnb --enable-libopencore-amrwb --enable-libopenjpeg --enable-libspeex --enable-libsoxr --enable-libzmq --enable-libzimg --disable-libjack --disable-indev=jack --enable-videotoolbox --enable-audiotoolbox --enable-neon\n",
      "  libavutil      58.  2.100 / 58.  2.100\n",
      "  libavcodec     60.  3.100 / 60.  3.100\n",
      "  libavformat    60.  3.100 / 60.  3.100\n",
      "  libavdevice    60.  1.100 / 60.  1.100\n",
      "  libavfilter     9.  3.100 /  9.  3.100\n",
      "  libswscale      7.  1.100 /  7.  1.100\n",
      "  libswresample   4. 10.100 /  4. 10.100\n",
      "  libpostproc    57.  1.100 / 57.  1.100\n",
      "Input #0, image2, from './output/image-%04d.png':\n",
      "  Duration: 00:00:38.92, start: 0.000000, bitrate: N/A\n",
      "  Stream #0:0: Video: png, rgb24(pc), 320x240 [SAR 1:1 DAR 4:3], 25 fps, 25 tbr, 25 tbn\n",
      "Stream mapping:\n",
      "  Stream #0:0 -> #0:0 (png (native) -> h264 (libx264))\n",
      "Press [q] to stop, [?] for help\n",
      "\u001b[1;36m[libx264 @ 0x11e6217a0] \u001b[0musing SAR=1/1\n",
      "\u001b[1;36m[libx264 @ 0x11e6217a0] \u001b[0musing cpu capabilities: ARMv8 NEON\n",
      "\u001b[1;36m[libx264 @ 0x11e6217a0] \u001b[0mprofile High, level 1.3, 4:2:0, 8-bit\n",
      "\u001b[1;36m[libx264 @ 0x11e6217a0] \u001b[0m264 - core 164 r3108 31e19f9 - H.264/MPEG-4 AVC codec - Copyleft 2003-2023 - http://www.videolan.org/x264.html - options: cabac=1 ref=3 deblock=1:0:0 analyse=0x3:0x113 me=hex subme=7 psy=1 psy_rd=1.00:0.00 mixed_ref=1 me_range=16 chroma_me=1 trellis=1 8x8dct=1 cqm=0 deadzone=21,11 fast_pskip=1 chroma_qp_offset=-2 threads=7 lookahead_threads=1 sliced_threads=0 nr=0 decimate=1 interlaced=0 bluray_compat=0 constrained_intra=0 bframes=3 b_pyramid=2 b_adapt=1 b_bias=0 direct=1 weightb=1 open_gop=0 weightp=2 keyint=250 keyint_min=25 scenecut=40 intra_refresh=0 rc_lookahead=40 rc=crf mbtree=1 crf=23.0 qcomp=0.60 qpmin=0 qpmax=69 qpstep=4 ip_ratio=1.40 aq=1:1.00\n",
      "Output #0, mp4, to './dreamvideo.mp4':\n",
      "  Metadata:\n",
      "    encoder         : Lavf60.3.100\n",
      "  Stream #0:0: Video: h264 (avc1 / 0x31637661), yuv420p(tv, progressive), 320x240 [SAR 1:1 DAR 4:3], q=2-31, 30 fps, 15360 tbn\n",
      "    Metadata:\n",
      "      encoder         : Lavc60.3.100 libx264\n",
      "    Side data:\n",
      "      cpb: bitrate max/min/avg: 0/0/0 buffer size: 0 vbv_delay: N/A\n",
      "frame= 1167 fps=0.0 q=-1.0 Lsize=     713kB time=00:00:38.80 bitrate= 150.6kbits/s dup=194 drop=0 speed=  69x    \n",
      "video:700kB audio:0kB subtitle:0kB other streams:0kB global headers:0kB muxing overhead: 1.892881%\n",
      "\u001b[1;36m[libx264 @ 0x11e6217a0] \u001b[0mframe I:13    Avg QP:17.77  size: 11391\n",
      "\u001b[1;36m[libx264 @ 0x11e6217a0] \u001b[0mframe P:506   Avg QP:21.68  size:   823\n",
      "\u001b[1;36m[libx264 @ 0x11e6217a0] \u001b[0mframe B:648   Avg QP:21.14  size:   234\n",
      "\u001b[1;36m[libx264 @ 0x11e6217a0] \u001b[0mconsecutive B-frames: 18.3% 18.0% 14.7% 49.0%\n",
      "\u001b[1;36m[libx264 @ 0x11e6217a0] \u001b[0mmb I  I16..4: 18.8% 33.3% 47.9%\n",
      "\u001b[1;36m[libx264 @ 0x11e6217a0] \u001b[0mmb P  I16..4:  0.2%  1.5%  0.6%  P16..4: 16.9%  7.5%  4.9%  0.0%  0.0%    skip:68.4%\n",
      "\u001b[1;36m[libx264 @ 0x11e6217a0] \u001b[0mmb B  I16..4:  0.1%  0.2%  0.1%  B16..8: 14.3%  2.5%  0.8%  direct: 0.6%  skip:81.3%  L0:48.0% L1:45.0% BI: 6.9%\n",
      "\u001b[1;36m[libx264 @ 0x11e6217a0] \u001b[0m8x8 transform intra:49.0% inter:61.5%\n",
      "\u001b[1;36m[libx264 @ 0x11e6217a0] \u001b[0mcoded y,uvDC,uvAC intra: 76.3% 83.7% 63.4% inter: 6.3% 6.6% 0.8%\n",
      "\u001b[1;36m[libx264 @ 0x11e6217a0] \u001b[0mi16 v,h,dc,p:  8% 50% 26% 16%\n",
      "\u001b[1;36m[libx264 @ 0x11e6217a0] \u001b[0mi8 v,h,dc,ddl,ddr,vr,hd,vl,hu: 12% 21% 10%  8%  9%  9% 10% 10% 12%\n",
      "\u001b[1;36m[libx264 @ 0x11e6217a0] \u001b[0mi4 v,h,dc,ddl,ddr,vr,hd,vl,hu: 11% 28% 18%  6%  8%  7%  8%  6%  7%\n",
      "\u001b[1;36m[libx264 @ 0x11e6217a0] \u001b[0mi8c dc,h,v,p: 43% 29% 15% 13%\n",
      "\u001b[1;36m[libx264 @ 0x11e6217a0] \u001b[0mWeighted P-Frames: Y:0.0% UV:0.0%\n",
      "\u001b[1;36m[libx264 @ 0x11e6217a0] \u001b[0mref P L0: 71.8% 15.5%  8.9%  3.8%\n",
      "\u001b[1;36m[libx264 @ 0x11e6217a0] \u001b[0mref B L0: 90.9%  7.1%  1.9%\n",
      "\u001b[1;36m[libx264 @ 0x11e6217a0] \u001b[0mref B L1: 97.1%  2.9%\n",
      "\u001b[1;36m[libx264 @ 0x11e6217a0] \u001b[0mkb/s:147.26\n"
     ]
    }
   ],
   "source": [
    "# @title ⬅️ **Combine The Deep Dreamed Images Back And Download**\n",
    "\n",
    "# mp4\n",
    "!ffmpeg -i ./output/image-%04d.png -r 30 -pix_fmt yuv420p -vf \"scale=trunc(iw/2)*2:trunc(ih/2)*2\" ./dreamvideo.mp4\n",
    "\n",
    "# from google.colab import files\n",
    "\n",
    "# files.download(\"dreamvideo.avi\")"
   ]
  },
  {
   "cell_type": "code",
   "execution_count": null,
   "metadata": {},
   "outputs": [],
   "source": []
  }
 ],
 "metadata": {
  "kernelspec": {
   "display_name": "venv",
   "language": "python",
   "name": "python3"
  },
  "language_info": {
   "codemirror_mode": {
    "name": "ipython",
    "version": 3
   },
   "file_extension": ".py",
   "mimetype": "text/x-python",
   "name": "python",
   "nbconvert_exporter": "python",
   "pygments_lexer": "ipython3",
   "version": "3.11.6"
  }
 },
 "nbformat": 4,
 "nbformat_minor": 2
}
